STARTFONT 2.1
FONT -FontForge-Helvetica Neue-Bold-R-Normal--9-90-75-75-P-49-ISO10646-1
SIZE 9 75 75
FONTBOUNDINGBOX 8 9 0 -2
COMMENT "Generated by fontforge, http://fontforge.sourceforge.net"
COMMENT "Copyright (c) 1981, 1982, 1983, 1989 and 1993, Linotype Library GmbH or its affiliated Linotype-Hell companies. All rights reserved."
COMMENT ""
COMMENT "The digitally encoded machine readable software for producing the Typefaces licensed to you is now the property of Heidelberger Druckmaschinen AG and its licensors, and may not be reproduced, used, displayed, modified, disclosed or transferred without the express written approval of Heidelberger Druckmaschinen AG."
COMMENT ""
COMMENT "Copyright (c) 1988, 1990, 1993 Adobe Systems Incorporated. All Rights Reserved."
STARTPROPERTIES 39
FOUNDRY "FontForge"
FAMILY_NAME "Helvetica Neue"
WEIGHT_NAME "Bold"
SLANT "R"
SETWIDTH_NAME "Normal"
ADD_STYLE_NAME ""
PIXEL_SIZE 9
POINT_SIZE 90
RESOLUTION_X 75
RESOLUTION_Y 75
SPACING "P"
AVERAGE_WIDTH 49
CHARSET_REGISTRY "ISO10646"
CHARSET_ENCODING "1"
FONTNAME_REGISTRY ""
CHARSET_COLLECTIONS "ISO8859-5 ISO10646-1"
FONT_NAME "HelveticaNeue-Bold"
FACE_NAME "Helvetica Neue Bold"
COPYRIGHT "Copyright (c) 1981, 1982, 1983, 1989 and 1993, Linotype Library GmbH or its affiliated Linotype-Hell companies. All rights reserved."
FONT_VERSION "6.1d8e1"
FONT_ASCENT 7
FONT_DESCENT 2
UNDERLINE_POSITION -1
UNDERLINE_THICKNESS 1
X_HEIGHT 4
CAP_HEIGHT 5
RAW_ASCENT 800
RAW_DESCENT 200
NORM_SPACE 3
RELATIVE_WEIGHT 70
RELATIVE_SETWIDTH 50
SUPERSCRIPT_X 0
SUPERSCRIPT_Y 2
SUPERSCRIPT_SIZE 1
SUBSCRIPT_X 0
SUBSCRIPT_Y 2
SUBSCRIPT_SIZE 1
AVG_LOWERCASE_WIDTH 51
AVG_UPPERCASE_WIDTH 63
ENDPROPERTIES
CHARS 99
STARTCHAR controlBS
ENCODING 8
SWIDTH 0 0
DWIDTH 0 0
BBX 1 1 0 0
BITMAP
00
ENDCHAR
STARTCHAR controlHT
ENCODING 9
SWIDTH 278 0
DWIDTH 3 0
BBX 1 1 0 0
BITMAP
00
ENDCHAR
STARTCHAR controlCR
ENCODING 13
SWIDTH 278 0
DWIDTH 3 0
BBX 1 1 0 0
BITMAP
00
ENDCHAR
STARTCHAR controlGS
ENCODING 29
SWIDTH 0 0
DWIDTH 0 0
BBX 1 1 0 0
BITMAP
00
ENDCHAR
STARTCHAR space
ENCODING 32
SWIDTH 278 0
DWIDTH 3 0
BBX 1 1 0 0
BITMAP
00
ENDCHAR
STARTCHAR exclam
ENCODING 33
SWIDTH 278 0
DWIDTH 3 0
BBX 1 6 1 0
BITMAP
80
80
80
80
80
80
ENDCHAR
STARTCHAR quotedbl
ENCODING 34
SWIDTH 463 0
DWIDTH 4 0
BBX 2 2 1 4
BITMAP
C0
C0
ENDCHAR
STARTCHAR numbersign
ENCODING 35
SWIDTH 556 0
DWIDTH 5 0
BBX 5 6 0 0
BITMAP
70
78
50
F0
50
60
ENDCHAR
STARTCHAR dollar
ENCODING 36
SWIDTH 556 0
DWIDTH 4 0
BBX 5 8 0 -1
BITMAP
70
A8
E0
70
38
A8
70
20
ENDCHAR
STARTCHAR percent
ENCODING 37
SWIDTH 1000 0
DWIDTH 9 0
BBX 7 7 1 0
BITMAP
CC
A8
B0
D6
2A
2A
46
ENDCHAR
STARTCHAR ampersand
ENCODING 38
SWIDTH 685 0
DWIDTH 6 0
BBX 6 7 0 0
BITMAP
70
50
70
60
B8
98
6C
ENDCHAR
STARTCHAR quotesingle
ENCODING 39
SWIDTH 278 0
DWIDTH 3 0
BBX 1 2 1 4
BITMAP
80
80
ENDCHAR
STARTCHAR parenleft
ENCODING 40
SWIDTH 296 0
DWIDTH 3 0
BBX 2 9 1 -2
BITMAP
40
80
80
80
80
80
80
80
C0
ENDCHAR
STARTCHAR parenright
ENCODING 41
SWIDTH 296 0
DWIDTH 3 0
BBX 2 9 0 -2
BITMAP
80
40
40
40
40
40
40
40
80
ENDCHAR
STARTCHAR asterisk
ENCODING 42
SWIDTH 407 0
DWIDTH 4 0
BBX 3 3 0 3
BITMAP
40
E0
A0
ENDCHAR
STARTCHAR plus
ENCODING 43
SWIDTH 600 0
DWIDTH 5 0
BBX 5 5 0 0
BITMAP
20
20
F8
20
20
ENDCHAR
STARTCHAR comma
ENCODING 44
SWIDTH 278 0
DWIDTH 3 0
BBX 1 2 1 -1
BITMAP
80
80
ENDCHAR
STARTCHAR hyphen
ENCODING 45
SWIDTH 407 0
DWIDTH 4 0
BBX 3 1 0 2
BITMAP
E0
ENDCHAR
STARTCHAR period
ENCODING 46
SWIDTH 278 0
DWIDTH 3 0
BBX 1 1 1 0
BITMAP
80
ENDCHAR
STARTCHAR slash
ENCODING 47
SWIDTH 371 0
DWIDTH 3 0
BBX 3 7 0 0
BITMAP
20
20
20
40
40
80
80
ENDCHAR
STARTCHAR zero
ENCODING 48
SWIDTH 556 0
DWIDTH 5 0
BBX 4 6 0 0
BITMAP
60
90
90
90
90
60
ENDCHAR
STARTCHAR one
ENCODING 49
SWIDTH 556 0
DWIDTH 5 0
BBX 3 6 0 0
BITMAP
20
E0
20
20
20
20
ENDCHAR
STARTCHAR two
ENCODING 50
SWIDTH 556 0
DWIDTH 5 0
BBX 4 6 0 0
BITMAP
60
90
10
20
C0
F0
ENDCHAR
STARTCHAR three
ENCODING 51
SWIDTH 556 0
DWIDTH 6 0
BBX 5 6 0 0
BITMAP
70
88
18
08
88
70
ENDCHAR
STARTCHAR four
ENCODING 52
SWIDTH 556 0
DWIDTH 5 0
BBX 5 6 0 0
BITMAP
10
30
50
50
F8
10
ENDCHAR
STARTCHAR five
ENCODING 53
SWIDTH 556 0
DWIDTH 6 0
BBX 4 6 1 0
BITMAP
70
C0
F0
90
90
70
ENDCHAR
STARTCHAR six
ENCODING 54
SWIDTH 556 0
DWIDTH 6 0
BBX 5 6 0 0
BITMAP
78
88
F0
88
88
70
ENDCHAR
STARTCHAR seven
ENCODING 55
SWIDTH 556 0
DWIDTH 5 0
BBX 4 6 0 0
BITMAP
F0
30
20
40
40
40
ENDCHAR
STARTCHAR eight
ENCODING 56
SWIDTH 556 0
DWIDTH 6 0
BBX 5 6 0 0
BITMAP
70
88
78
88
88
70
ENDCHAR
STARTCHAR nine
ENCODING 57
SWIDTH 556 0
DWIDTH 6 0
BBX 5 6 0 0
BITMAP
70
88
88
78
88
F0
ENDCHAR
STARTCHAR colon
ENCODING 58
SWIDTH 278 0
DWIDTH 3 0
BBX 1 4 1 0
BITMAP
80
00
00
80
ENDCHAR
STARTCHAR semicolon
ENCODING 59
SWIDTH 278 0
DWIDTH 3 0
BBX 1 5 1 -1
BITMAP
80
00
00
80
80
ENDCHAR
STARTCHAR less
ENCODING 60
SWIDTH 600 0
DWIDTH 5 0
BBX 5 5 0 0
BITMAP
08
70
C0
70
08
ENDCHAR
STARTCHAR equal
ENCODING 61
SWIDTH 600 0
DWIDTH 5 0
BBX 5 3 0 1
BITMAP
F8
00
F8
ENDCHAR
STARTCHAR greater
ENCODING 62
SWIDTH 600 0
DWIDTH 5 0
BBX 5 5 0 0
BITMAP
C0
70
08
70
C0
ENDCHAR
STARTCHAR question
ENCODING 63
SWIDTH 556 0
DWIDTH 6 0
BBX 5 7 0 0
BITMAP
70
88
08
10
10
00
20
ENDCHAR
STARTCHAR at
ENCODING 64
SWIDTH 800 0
DWIDTH 8 0
BBX 7 7 0 0
BITMAP
3C
46
9E
AA
AA
7C
3E
ENDCHAR
STARTCHAR A
ENCODING 65
SWIDTH 685 0
DWIDTH 6 0
BBX 6 6 0 0
BITMAP
30
30
78
48
7C
C4
ENDCHAR
STARTCHAR B
ENCODING 66
SWIDTH 704 0
DWIDTH 7 0
BBX 5 6 1 0
BITMAP
F8
88
F8
88
88
F8
ENDCHAR
STARTCHAR C
ENCODING 67
SWIDTH 741 0
DWIDTH 7 0
BBX 5 6 1 0
BITMAP
70
88
80
80
88
70
ENDCHAR
STARTCHAR D
ENCODING 68
SWIDTH 741 0
DWIDTH 7 0
BBX 5 6 1 0
BITMAP
F0
88
88
88
88
F0
ENDCHAR
STARTCHAR E
ENCODING 69
SWIDTH 648 0
DWIDTH 6 0
BBX 4 6 1 0
BITMAP
F0
80
F0
80
80
F0
ENDCHAR
STARTCHAR F
ENCODING 70
SWIDTH 593 0
DWIDTH 5 0
BBX 4 6 1 0
BITMAP
F0
80
F0
80
80
80
ENDCHAR
STARTCHAR G
ENCODING 71
SWIDTH 759 0
DWIDTH 7 0
BBX 6 6 0 0
BITMAP
70
88
80
8C
84
7C
ENDCHAR
STARTCHAR H
ENCODING 72
SWIDTH 741 0
DWIDTH 7 0
BBX 5 6 1 0
BITMAP
88
88
F8
88
88
88
ENDCHAR
STARTCHAR I
ENCODING 73
SWIDTH 295 0
DWIDTH 3 0
BBX 1 6 1 0
BITMAP
80
80
80
80
80
80
ENDCHAR
STARTCHAR J
ENCODING 74
SWIDTH 556 0
DWIDTH 5 0
BBX 4 6 0 0
BITMAP
10
10
10
10
90
E0
ENDCHAR
STARTCHAR K
ENCODING 75
SWIDTH 722 0
DWIDTH 7 0
BBX 6 6 1 0
BITMAP
98
B0
E0
B0
90
9C
ENDCHAR
STARTCHAR L
ENCODING 76
SWIDTH 593 0
DWIDTH 5 0
BBX 4 6 1 0
BITMAP
80
80
80
80
80
F0
ENDCHAR
STARTCHAR M
ENCODING 77
SWIDTH 907 0
DWIDTH 8 0
BBX 6 6 1 0
BITMAP
CC
CC
EC
B4
B4
B4
ENDCHAR
STARTCHAR N
ENCODING 78
SWIDTH 741 0
DWIDTH 7 0
BBX 5 6 1 0
BITMAP
C8
C8
E8
B8
98
98
ENDCHAR
STARTCHAR O
ENCODING 79
SWIDTH 778 0
DWIDTH 7 0
BBX 6 6 0 0
BITMAP
78
84
84
84
84
78
ENDCHAR
STARTCHAR P
ENCODING 80
SWIDTH 667 0
DWIDTH 6 0
BBX 4 6 1 0
BITMAP
E0
90
90
E0
80
80
ENDCHAR
STARTCHAR Q
ENCODING 81
SWIDTH 778 0
DWIDTH 7 0
BBX 6 7 0 -1
BITMAP
78
84
84
84
9C
78
04
ENDCHAR
STARTCHAR R
ENCODING 82
SWIDTH 722 0
DWIDTH 7 0
BBX 6 6 1 0
BITMAP
F8
88
F0
88
88
8C
ENDCHAR
STARTCHAR S
ENCODING 83
SWIDTH 649 0
DWIDTH 6 0
BBX 5 7 0 0
BITMAP
70
88
C0
78
08
88
70
ENDCHAR
STARTCHAR T
ENCODING 84
SWIDTH 611 0
DWIDTH 6 0
BBX 5 6 0 0
BITMAP
F8
20
20
20
20
20
ENDCHAR
STARTCHAR U
ENCODING 85
SWIDTH 741 0
DWIDTH 7 0
BBX 5 6 1 0
BITMAP
88
88
88
88
88
70
ENDCHAR
STARTCHAR V
ENCODING 86
SWIDTH 630 0
DWIDTH 6 0
BBX 6 6 0 0
BITMAP
CC
C8
58
70
70
30
ENDCHAR
STARTCHAR W
ENCODING 87
SWIDTH 944 0
DWIDTH 9 0
BBX 8 6 0 0
BITMAP
D9
D9
5F
56
76
26
ENDCHAR
STARTCHAR X
ENCODING 88
SWIDTH 667 0
DWIDTH 6 0
BBX 6 6 0 0
BITMAP
CC
78
30
30
78
CC
ENDCHAR
STARTCHAR Y
ENCODING 89
SWIDTH 667 0
DWIDTH 6 0
BBX 5 6 0 0
BITMAP
C8
50
70
20
20
20
ENDCHAR
STARTCHAR Z
ENCODING 90
SWIDTH 648 0
DWIDTH 6 0
BBX 6 6 0 0
BITMAP
FC
18
30
60
60
FC
ENDCHAR
STARTCHAR bracketleft
ENCODING 91
SWIDTH 333 0
DWIDTH 3 0
BBX 2 9 1 -2
BITMAP
C0
80
80
80
80
80
80
80
C0
ENDCHAR
STARTCHAR backslash
ENCODING 92
SWIDTH 371 0
DWIDTH 3 0
BBX 3 7 0 0
BITMAP
80
80
40
40
20
20
20
ENDCHAR
STARTCHAR bracketright
ENCODING 93
SWIDTH 333 0
DWIDTH 3 0
BBX 2 9 0 -2
BITMAP
C0
40
40
40
40
40
40
40
C0
ENDCHAR
STARTCHAR asciicircum
ENCODING 94
SWIDTH 600 0
DWIDTH 5 0
BBX 4 3 1 3
BITMAP
60
A0
90
ENDCHAR
STARTCHAR underscore
ENCODING 95
SWIDTH 500 0
DWIDTH 5 0
BBX 5 1 0 -1
BITMAP
F8
ENDCHAR
STARTCHAR grave
ENCODING 96
SWIDTH 259 0
DWIDTH 2 0
BBX 2 1 0 5
BITMAP
C0
ENDCHAR
STARTCHAR a
ENCODING 97
SWIDTH 574 0
DWIDTH 6 0
BBX 5 5 0 0
BITMAP
78
88
78
88
F8
ENDCHAR
STARTCHAR b
ENCODING 98
SWIDTH 611 0
DWIDTH 6 0
BBX 4 6 1 0
BITMAP
80
E0
90
90
90
E0
ENDCHAR
STARTCHAR c
ENCODING 99
SWIDTH 574 0
DWIDTH 5 0
BBX 4 5 0 0
BITMAP
60
90
80
90
60
ENDCHAR
STARTCHAR d
ENCODING 100
SWIDTH 611 0
DWIDTH 6 0
BBX 5 6 0 0
BITMAP
08
78
88
88
88
78
ENDCHAR
STARTCHAR e
ENCODING 101
SWIDTH 574 0
DWIDTH 5 0
BBX 4 5 0 0
BITMAP
60
90
F0
90
60
ENDCHAR
STARTCHAR f
ENCODING 102
SWIDTH 333 0
DWIDTH 3 0
BBX 3 6 0 0
BITMAP
60
E0
40
40
40
40
ENDCHAR
STARTCHAR g
ENCODING 103
SWIDTH 611 0
DWIDTH 6 0
BBX 5 7 0 -2
BITMAP
78
88
88
88
78
48
70
ENDCHAR
STARTCHAR h
ENCODING 104
SWIDTH 593 0
DWIDTH 5 0
BBX 4 6 1 0
BITMAP
80
F0
90
90
90
90
ENDCHAR
STARTCHAR i
ENCODING 105
SWIDTH 258 0
DWIDTH 3 0
BBX 1 6 1 0
BITMAP
80
80
80
80
80
80
ENDCHAR
STARTCHAR j
ENCODING 106
SWIDTH 278 0
DWIDTH 3 0
BBX 2 8 0 -2
BITMAP
40
00
40
40
40
40
40
C0
ENDCHAR
STARTCHAR k
ENCODING 107
SWIDTH 574 0
DWIDTH 5 0
BBX 4 6 1 0
BITMAP
80
80
B0
E0
A0
B0
ENDCHAR
STARTCHAR l
ENCODING 108
SWIDTH 258 0
DWIDTH 3 0
BBX 1 6 1 0
BITMAP
80
80
80
80
80
80
ENDCHAR
STARTCHAR m
ENCODING 109
SWIDTH 906 0
DWIDTH 8 0
BBX 6 5 1 0
BITMAP
FC
94
94
94
94
ENDCHAR
STARTCHAR n
ENCODING 110
SWIDTH 593 0
DWIDTH 6 0
BBX 4 5 1 0
BITMAP
F0
90
90
90
90
ENDCHAR
STARTCHAR o
ENCODING 111
SWIDTH 611 0
DWIDTH 6 0
BBX 5 5 0 0
BITMAP
70
88
88
88
70
ENDCHAR
STARTCHAR p
ENCODING 112
SWIDTH 611 0
DWIDTH 6 0
BBX 4 7 1 -2
BITMAP
E0
90
90
90
E0
80
80
ENDCHAR
STARTCHAR q
ENCODING 113
SWIDTH 611 0
DWIDTH 6 0
BBX 5 7 0 -2
BITMAP
78
88
88
88
78
08
08
ENDCHAR
STARTCHAR r
ENCODING 114
SWIDTH 389 0
DWIDTH 4 0
BBX 3 5 1 0
BITMAP
E0
80
80
80
80
ENDCHAR
STARTCHAR s
ENCODING 115
SWIDTH 537 0
DWIDTH 5 0
BBX 4 5 0 0
BITMAP
F0
80
70
90
70
ENDCHAR
STARTCHAR t
ENCODING 116
SWIDTH 352 0
DWIDTH 3 0
BBX 3 6 0 0
BITMAP
40
E0
40
40
40
60
ENDCHAR
STARTCHAR u
ENCODING 117
SWIDTH 593 0
DWIDTH 6 0
BBX 4 5 1 0
BITMAP
90
90
90
90
F0
ENDCHAR
STARTCHAR v
ENCODING 118
SWIDTH 520 0
DWIDTH 5 0
BBX 5 5 0 0
BITMAP
D8
50
50
70
60
ENDCHAR
STARTCHAR w
ENCODING 119
SWIDTH 814 0
DWIDTH 7 0
BBX 7 5 0 0
BITMAP
D2
DA
6E
6C
6C
ENDCHAR
STARTCHAR x
ENCODING 120
SWIDTH 537 0
DWIDTH 5 0
BBX 5 5 0 0
BITMAP
D8
70
20
70
D8
ENDCHAR
STARTCHAR y
ENCODING 121
SWIDTH 519 0
DWIDTH 5 0
BBX 5 7 0 -2
BITMAP
98
D0
50
70
60
20
C0
ENDCHAR
STARTCHAR z
ENCODING 122
SWIDTH 519 0
DWIDTH 5 0
BBX 4 5 0 0
BITMAP
F0
30
60
40
F0
ENDCHAR
STARTCHAR braceleft
ENCODING 123
SWIDTH 333 0
DWIDTH 3 0
BBX 3 9 0 -2
BITMAP
60
40
40
40
80
40
40
40
60
ENDCHAR
STARTCHAR bar
ENCODING 124
SWIDTH 223 0
DWIDTH 2 0
BBX 1 9 1 -2
BITMAP
80
80
80
80
80
80
80
80
80
ENDCHAR
STARTCHAR braceright
ENCODING 125
SWIDTH 333 0
DWIDTH 3 0
BBX 3 9 0 -2
BITMAP
C0
40
40
40
20
40
40
40
C0
ENDCHAR
STARTCHAR asciitilde
ENCODING 126
SWIDTH 600 0
DWIDTH 5 0
BBX 4 2 1 1
BITMAP
D0
B0
ENDCHAR
ENDFONT
